<mxfile host="Electron" agent="Mozilla/5.0 (Windows NT 10.0; Win64; x64) AppleWebKit/537.36 (KHTML, like Gecko) draw.io/24.7.17 Chrome/128.0.6613.36 Electron/32.0.1 Safari/537.36" version="24.7.17">
  <diagram name="Page-1" id="8ui8sv6lmpGh5-gFNvdH">
    <mxGraphModel dx="911" dy="548" grid="1" gridSize="10" guides="1" tooltips="1" connect="1" arrows="1" fold="1" page="1" pageScale="1" pageWidth="850" pageHeight="1100" math="0" shadow="0">
      <root>
        <mxCell id="0" />
        <mxCell id="1" parent="0" />
        <mxCell id="Pv9qg1BYju6EXQ4AXCYY-1" value="Python-Ninjas" style="swimlane;childLayout=stackLayout;resizeParent=1;resizeParentMax=0;horizontal=1;startSize=20;horizontalStack=0;html=1;swimlaneFillColor=none;gradientDirection=radial;" parent="1" vertex="1">
          <mxGeometry x="185" y="40" width="570" height="660" as="geometry" />
        </mxCell>
        <mxCell id="Pv9qg1BYju6EXQ4AXCYY-2" value="Source" style="swimlane;startSize=20;horizontal=0;html=1;" parent="Pv9qg1BYju6EXQ4AXCYY-1" vertex="1">
          <mxGeometry y="20" width="570" height="160" as="geometry" />
        </mxCell>
        <mxCell id="Pv9qg1BYju6EXQ4AXCYY-38" value="alku" style="ellipse;whiteSpace=wrap;html=1;" parent="Pv9qg1BYju6EXQ4AXCYY-2" vertex="1">
          <mxGeometry x="257.5" y="10" width="55" height="40" as="geometry" />
        </mxCell>
        <mxCell id="Pv9qg1BYju6EXQ4AXCYY-46" value="CompanyLtd&lt;div&gt;DB&lt;/div&gt;" style="shape=parallelogram;perimeter=parallelogramPerimeter;whiteSpace=wrap;html=1;fixedSize=1;" parent="Pv9qg1BYju6EXQ4AXCYY-2" vertex="1">
          <mxGeometry x="130" y="80" width="150" height="40" as="geometry" />
        </mxCell>
        <mxCell id="G3pou8CoRzz35VWz5OwB-13" value="electricity_price.csv" style="shape=parallelogram;perimeter=parallelogramPerimeter;whiteSpace=wrap;html=1;fixedSize=1;" vertex="1" parent="Pv9qg1BYju6EXQ4AXCYY-2">
          <mxGeometry x="290" y="80" width="150" height="40" as="geometry" />
        </mxCell>
        <mxCell id="Pv9qg1BYju6EXQ4AXCYY-3" value="Staging" style="swimlane;startSize=20;horizontal=0;html=1;" parent="Pv9qg1BYju6EXQ4AXCYY-1" vertex="1">
          <mxGeometry y="180" width="570" height="160" as="geometry" />
        </mxCell>
        <mxCell id="Pv9qg1BYju6EXQ4AXCYY-47" value="extract data" style="rounded=1;whiteSpace=wrap;html=1;" parent="Pv9qg1BYju6EXQ4AXCYY-3" vertex="1">
          <mxGeometry x="240" width="85" height="40" as="geometry" />
        </mxCell>
        <mxCell id="G3pou8CoRzz35VWz5OwB-23" value="Käsitellään data:&lt;br&gt;1. mitä tehdään null-arvoille?&lt;div&gt;2.&amp;nbsp;&lt;/div&gt;" style="rounded=0;whiteSpace=wrap;html=1;align=left;" vertex="1" parent="Pv9qg1BYju6EXQ4AXCYY-3">
          <mxGeometry x="35" y="50" width="515" height="60" as="geometry" />
        </mxCell>
        <mxCell id="Pv9qg1BYju6EXQ4AXCYY-4" value="Repository" style="swimlane;startSize=20;horizontal=0;html=1;" parent="Pv9qg1BYju6EXQ4AXCYY-1" vertex="1">
          <mxGeometry y="340" width="570" height="160" as="geometry" />
        </mxCell>
        <mxCell id="G3pou8CoRzz35VWz5OwB-11" value="transform data" style="rounded=1;whiteSpace=wrap;html=1;" vertex="1" parent="Pv9qg1BYju6EXQ4AXCYY-4">
          <mxGeometry x="240" width="85" height="40" as="geometry" />
        </mxCell>
        <mxCell id="G3pou8CoRzz35VWz5OwB-25" value="Muutetaan tarpeen tullen dataa:&lt;br&gt;1.&amp;nbsp;&lt;div&gt;2.&amp;nbsp;&lt;/div&gt;" style="rounded=0;whiteSpace=wrap;html=1;align=left;" vertex="1" parent="Pv9qg1BYju6EXQ4AXCYY-4">
          <mxGeometry x="35" y="60" width="515" height="60" as="geometry" />
        </mxCell>
        <mxCell id="Pv9qg1BYju6EXQ4AXCYY-37" value="Reporting" style="swimlane;startSize=20;horizontal=0;html=1;" parent="Pv9qg1BYju6EXQ4AXCYY-1" vertex="1">
          <mxGeometry y="500" width="570" height="160" as="geometry" />
        </mxCell>
        <mxCell id="Pv9qg1BYju6EXQ4AXCYY-45" value="loppu" style="ellipse;whiteSpace=wrap;html=1;" parent="Pv9qg1BYju6EXQ4AXCYY-37" vertex="1">
          <mxGeometry x="257.5" y="100" width="55" height="40" as="geometry" />
        </mxCell>
        <mxCell id="G3pou8CoRzz35VWz5OwB-12" value="load data" style="rounded=1;whiteSpace=wrap;html=1;" vertex="1" parent="Pv9qg1BYju6EXQ4AXCYY-37">
          <mxGeometry x="240" width="85" height="40" as="geometry" />
        </mxCell>
        <mxCell id="G3pou8CoRzz35VWz5OwB-22" value="raportti" style="shape=parallelogram;perimeter=parallelogramPerimeter;whiteSpace=wrap;html=1;fixedSize=1;" vertex="1" parent="Pv9qg1BYju6EXQ4AXCYY-37">
          <mxGeometry x="207.5" y="50" width="150" height="40" as="geometry" />
        </mxCell>
        <mxCell id="Pv9qg1BYju6EXQ4AXCYY-48" value="onko csv" style="rhombus;whiteSpace=wrap;html=1;" parent="1" vertex="1">
          <mxGeometry x="770" y="260" width="65" height="70" as="geometry" />
        </mxCell>
      </root>
    </mxGraphModel>
  </diagram>
</mxfile>
